<?xml version="1.0" encoding="UTF-8" standalone="no"?>
<!-- Created with Inkscape (http://www.inkscape.org/) -->

<svg
   width="512"
   height="512"
   viewBox="0 0 135.46666 135.46667"
   version="1.1"
   id="svg5"
   xml:space="preserve"
   inkscape:version="1.2.2 (732a01da63, 2022-12-09, custom)"
   sodipodi:docname="icone"
   xmlns:inkscape="http://www.inkscape.org/namespaces/inkscape"
   xmlns:sodipodi="http://sodipodi.sourceforge.net/DTD/sodipodi-0.dtd"
   xmlns:xlink="http://www.w3.org/1999/xlink"
   xmlns="http://www.w3.org/2000/svg"
   xmlns:svg="http://www.w3.org/2000/svg"><sodipodi:namedview
     id="namedview7"
     pagecolor="#ffffff"
     bordercolor="#000000"
     borderopacity="0.25"
     inkscape:showpageshadow="2"
     inkscape:pageopacity="0.0"
     inkscape:pagecheckerboard="0"
     inkscape:deskcolor="#d1d1d1"
     inkscape:document-units="mm"
     showgrid="false"
     inkscape:zoom="0.8315052"
     inkscape:cx="265.78306"
     inkscape:cy="279.01209"
     inkscape:window-width="1600"
     inkscape:window-height="830"
     inkscape:window-x="0"
     inkscape:window-y="34"
     inkscape:window-maximized="1"
     inkscape:current-layer="layer1" /><defs
     id="defs2"><linearGradient
       inkscape:collect="always"
       id="linearGradient13403"><stop
         style="stop-color:#dfa749;stop-opacity:1;"
         offset="0"
         id="stop13399" /><stop
         style="stop-color:#eccb93;stop-opacity:1;"
         offset="1"
         id="stop13401" /></linearGradient><linearGradient
       inkscape:collect="always"
       id="linearGradient11943"><stop
         style="stop-color:#54a6f2;stop-opacity:1;"
         offset="0"
         id="stop11939" /><stop
         style="stop-color:#0e69be;stop-opacity:1;"
         offset="1"
         id="stop11941" /></linearGradient><linearGradient
       inkscape:collect="always"
       id="linearGradient5747"><stop
         style="stop-color:#0e69be;stop-opacity:1;"
         offset="0"
         id="stop5743" /><stop
         style="stop-color:#54a6f2;stop-opacity:1;"
         offset="1"
         id="stop5745" /></linearGradient><linearGradient
       inkscape:collect="always"
       id="linearGradient2994"><stop
         style="stop-color:#49a43d;stop-opacity:1;"
         offset="0"
         id="stop2990" /><stop
         style="stop-color:#8ad081;stop-opacity:1;"
         offset="1"
         id="stop2992" /></linearGradient><linearGradient
       inkscape:collect="always"
       xlink:href="#linearGradient2994"
       id="linearGradient2996"
       x1="-58.544865"
       y1="78.660858"
       x2="-58.273666"
       y2="104.38274"
       gradientUnits="userSpaceOnUse" /><linearGradient
       inkscape:collect="always"
       xlink:href="#linearGradient5747"
       id="linearGradient5749"
       x1="-91.528542"
       y1="111.70561"
       x2="-65.80233"
       y2="111.70561"
       gradientUnits="userSpaceOnUse" /><linearGradient
       inkscape:collect="always"
       xlink:href="#linearGradient11943"
       id="linearGradient11945"
       x1="-51.232288"
       y1="112.14484"
       x2="-25.505018"
       y2="112.14484"
       gradientUnits="userSpaceOnUse" /><linearGradient
       inkscape:collect="always"
       xlink:href="#linearGradient13403"
       id="linearGradient13405"
       x1="-58.944633"
       y1="144.80241"
       x2="-58.94434"
       y2="119.07628"
       gradientUnits="userSpaceOnUse" /></defs><g
     inkscape:label="Camada 1"
     inkscape:groupmode="layer"
     id="layer1"><g
       id="g14863"
       transform="matrix(2.0481131,0,0,2.0481131,187.58231,-161.10505)"
       style="stroke-width:0.488253"><path
         id="path2887"
         style="vector-effect:non-scaling-stroke;fill:url(#linearGradient2996);fill-opacity:1;stroke:none;stroke-width:4.55735e-05;-inkscape-stroke:hairline"
         d="m -58.544865,78.660857 c -2.892346,0.02659 -6.126834,1.301509 -9.616984,4.69067 l -8.443929,8.44341 5.002279,5.05189 a 19.824362,19.824362 0 0 1 0.104903,-0.0977 19.824362,19.824362 0 0 1 1.101741,-0.88832 19.824362,19.824362 0 0 1 1.16272,-0.80718 19.824362,19.824362 0 0 1 1.21698,-0.72192 19.824362,19.824362 0 0 1 1.265556,-0.63355 19.824362,19.824362 0 0 1 1.307414,-0.54157 19.824362,19.824362 0 0 1 1.342553,-0.44649 19.824362,19.824362 0 0 1 0.487309,-0.13384 5.133007,5.133007 0 0 1 0.0088,-0.13539 5.133007,5.133007 0 0 1 0.130741,-0.65836 5.133007,5.133007 0 0 1 0.216008,-0.63562 5.133007,5.133007 0 0 1 0.297139,-0.60255 5.133007,5.133007 0 0 1 0.373104,-0.5581 5.133007,5.133007 0 0 1 0.442351,-0.50488 5.133007,5.133007 0 0 1 0.504878,-0.44287 5.133007,5.133007 0 0 1 0.558106,-0.37259 5.133007,5.133007 0 0 1 0.602547,-0.29714 5.133007,5.133007 0 0 1 0.63562,-0.216 5.133007,5.133007 0 0 1 0.658358,-0.13074 5.133007,5.133007 0 0 1 0.670243,-0.0439 5.133007,5.133007 0 0 1 0.230477,0.005 5.133007,5.133007 0 0 1 0.229443,0.0155 5.133007,5.133007 0 0 1 0.228927,0.0258 5.133007,5.133007 0 0 1 0.227893,0.0357 5.133007,5.133007 0 0 1 0.225309,0.0465 5.133007,5.133007 0 0 1 0.223243,0.0563 5.133007,5.133007 0 0 1 0.220658,0.0661 5.133007,5.133007 0 0 1 0.217558,0.076 5.133007,5.133007 0 0 1 0.21394,0.0858 5.133007,5.133007 0 0 1 0.209806,0.0956 5.133007,5.133007 0 0 1 0.205156,0.10438 5.133007,5.133007 0 0 1 0.200504,0.11369 5.133007,5.133007 0 0 1 0.194821,0.12247 5.133007,5.133007 0 0 1 0.189135,0.13126 5.133007,5.133007 0 0 1 0.183452,0.13953 5.133007,5.133007 0 0 1 0.176733,0.14779 5.133007,5.133007 0 0 1 0.170015,0.15503 5.133007,5.133007 0 0 1 0.162781,0.1633 5.133007,5.133007 0 0 1 0.155546,0.17002 5.133007,5.133007 0 0 1 0.147795,0.17673 5.133007,5.133007 0 0 1 0.139526,0.18293 5.133007,5.133007 0 0 1 0.131258,0.18966 5.133007,5.133007 0 0 1 0.122474,0.19482 5.133007,5.133007 0 0 1 0.113688,0.2005 5.133007,5.133007 0 0 1 0.104386,0.20516 5.133007,5.133007 0 0 1 0.0956,0.2098 5.133007,5.133007 0 0 1 0.08578,0.21394 5.133007,5.133007 0 0 1 0.07596,0.21704 5.133007,5.133007 0 0 1 0.06615,0.22066 5.133007,5.133007 0 0 1 0.05633,0.22376 5.133007,5.133007 0 0 1 0.04599,0.22531 5.133007,5.133007 0 0 1 0.03617,0.22789 5.133007,5.133007 0 0 1 0.01757,0.15607 19.824362,19.824362 0 0 1 0.481108,0.13177 19.824362,19.824362 0 0 1 1.342554,0.447 19.824362,19.824362 0 0 1 1.307413,0.54157 19.824362,19.824362 0 0 1 1.265556,0.63304 19.824362,19.824362 0 0 1 1.21698,0.72243 19.824362,19.824362 0 0 1 1.16272,0.80719 19.824362,19.824362 0 0 1 1.086755,0.8754 l 5.064807,-5.06481 -8.320939,-8.32042 c -2.455071,-2.419683 -5.775872,-4.727109 -9.739457,-4.69067 z m -5.063257,15.08125 a 18.695728,18.695728 0 0 0 -0.685746,0.20774 18.695728,18.695728 0 0 0 -0.693498,0.24081 18.695728,18.695728 0 0 0 -0.683679,0.26717 18.695728,18.695728 0 0 0 -0.67231,0.29455 18.695728,18.695728 0 0 0 -0.660942,0.3204 18.695728,18.695728 0 0 0 -0.647506,0.34571 18.695728,18.695728 0 0 0 -0.633553,0.37156 18.695728,18.695728 0 0 0 -0.61805,0.39532 18.695728,18.695728 0 0 0 -0.60203,0.41961 18.695728,18.695728 0 0 0 -0.585494,0.44339 18.695728,18.695728 0 0 0 -0.567407,0.46612 18.695728,18.695728 0 0 0 -0.150896,0.13384 l 1.955437,1.97507 c 7.753723,7.008543 14.376634,5.656013 20.417358,0 l 2.087211,-2.08669 a 18.695728,18.695728 0 0 0 -0.02532,-0.0217 18.695728,18.695728 0 0 0 -0.376205,-0.31368 18.695728,18.695728 0 0 0 -0.384472,-0.30282 18.695728,18.695728 0 0 0 -0.392225,-0.29301 18.695728,18.695728 0 0 0 -0.399975,-0.28164 18.695728,18.695728 0 0 0 -0.406694,-0.27181 18.695728,18.695728 0 0 0 -0.413928,-0.26149 18.695728,18.695728 0 0 0 -0.420646,-0.25063 18.695728,18.695728 0 0 0 -0.426847,-0.23926 18.695728,18.695728 0 0 0 -0.433566,-0.22738 18.695728,18.695728 0 0 0 -0.438733,-0.21704 18.695728,18.695728 0 0 0 -0.444417,-0.20463 18.695728,18.695728 0 0 0 -0.449585,-0.19327 18.695728,18.695728 0 0 0 -0.454752,-0.18139 18.695728,18.695728 0 0 0 -0.459404,-0.1695 18.695728,18.695728 0 0 0 -0.463537,-0.15709 18.695728,18.695728 0 0 0 -0.467155,-0.14521 18.695728,18.695728 0 0 0 -0.218075,-0.0615 5.133007,5.133007 0 0 1 -0.0026,0.0372 5.133007,5.133007 0 0 1 -0.131258,0.65887 5.133007,5.133007 0 0 1 -0.215491,0.63562 5.133007,5.133007 0 0 1 -0.297139,0.60203 5.133007,5.133007 0 0 1 -0.373104,0.55862 5.133007,5.133007 0 0 1 -0.44235,0.50488 5.133007,5.133007 0 0 1 -0.504879,0.44235 5.133007,5.133007 0 0 1 -0.558622,0.37311 5.133007,5.133007 0 0 1 -0.602031,0.29714 5.133007,5.133007 0 0 1 -0.63562,0.21549 5.133007,5.133007 0 0 1 -0.658874,0.13126 5.133007,5.133007 0 0 1 -0.669727,0.0439 5.133007,5.133007 0 0 1 -0.670243,-0.0439 5.133007,5.133007 0 0 1 -0.658358,-0.13126 5.133007,5.133007 0 0 1 -0.63562,-0.21549 5.133007,5.133007 0 0 1 -0.602547,-0.29714 5.133007,5.133007 0 0 1 -0.558106,-0.37311 5.133007,5.133007 0 0 1 -0.504878,-0.44235 5.133007,5.133007 0 0 1 -0.442351,-0.50488 5.133007,5.133007 0 0 1 -0.373104,-0.55862 5.133007,5.133007 0 0 1 -0.297139,-0.60203 5.133007,5.133007 0 0 1 -0.216008,-0.63562 5.133007,5.133007 0 0 1 -0.130741,-0.65887 5.133007,5.133007 0 0 1 -0.0026,-0.0388 z" /><path
         id="path2901"
         style="vector-effect:non-scaling-stroke;fill:url(#linearGradient13405);fill-opacity:1;stroke:none;stroke-width:4.55735e-05;-inkscape-stroke:hairline"
         d="m -58.944324,119.07648 c -2.892301,0.0266 -6.126834,1.301 -9.616984,4.69015 l -2.141471,2.14148 a 18.695728,18.695728 0 0 0 0.04444,0.0393 18.695728,18.695728 0 0 0 0.567407,0.4656 18.695728,18.695728 0 0 0 0.585494,0.44287 18.695728,18.695728 0 0 0 0.60203,0.41961 18.695728,18.695728 0 0 0 0.61805,0.39585 18.695728,18.695728 0 0 0 0.633553,0.37155 18.695728,18.695728 0 0 0 0.647506,0.34623 18.695728,18.695728 0 0 0 0.660425,0.32039 18.695728,18.695728 0 0 0 0.672827,0.29404 18.695728,18.695728 0 0 0 0.683679,0.26769 18.695728,18.695728 0 0 0 0.693498,0.24029 18.695728,18.695728 0 0 0 0.444417,0.13488 5.133007,5.133007 0 0 1 0.162781,-0.47904 5.133007,5.133007 0 0 1 0.296623,-0.60255 5.133007,5.133007 0 0 1 0.373104,-0.5581 5.133007,5.133007 0 0 1 0.442867,-0.50488 5.133007,5.133007 0 0 1 0.504878,-0.44235 5.133007,5.133007 0 0 1 0.558106,-0.37311 5.133007,5.133007 0 0 1 0.60203,-0.29714 5.133007,5.133007 0 0 1 0.636137,-0.216 5.133007,5.133007 0 0 1 0.658358,-0.13075 5.133007,5.133007 0 0 1 0.670243,-0.0439 5.133007,5.133007 0 0 1 0.22996,0.005 5.133007,5.133007 0 0 1 0.229961,0.0155 5.133007,5.133007 0 0 1 0.228926,0.0258 5.133007,5.133007 0 0 1 0.227376,0.0362 5.133007,5.133007 0 0 1 0.225826,0.046 5.133007,5.133007 0 0 1 0.223243,0.0563 5.133007,5.133007 0 0 1 0.220658,0.0661 5.133007,5.133007 0 0 1 0.217558,0.076 5.133007,5.133007 0 0 1 0.21394,0.0858 5.133007,5.133007 0 0 1 0.20929,0.0956 5.133007,5.133007 0 0 1 0.205672,0.10438 5.133007,5.133007 0 0 1 0.199988,0.11369 5.133007,5.133007 0 0 1 0.195337,0.12247 5.133007,5.133007 0 0 1 0.189135,0.13126 5.133007,5.133007 0 0 1 0.183452,0.13953 5.133007,5.133007 0 0 1 0.176733,0.14779 5.133007,5.133007 0 0 1 0.170016,0.15503 5.133007,5.133007 0 0 1 0.16278,0.1633 5.133007,5.133007 0 0 1 0.155546,0.17001 5.133007,5.133007 0 0 1 0.147795,0.17674 5.133007,5.133007 0 0 1 0.139526,0.18293 5.133007,5.133007 0 0 1 0.130742,0.18965 5.133007,5.133007 0 0 1 0.12299,0.19482 5.133007,5.133007 0 0 1 0.113688,0.20051 5.133007,5.133007 0 0 1 0.104386,0.20515 5.133007,5.133007 0 0 1 0.09508,0.20981 5.133007,5.133007 0 0 1 0.08578,0.21394 5.133007,5.133007 0 0 1 0.07596,0.21704 5.133007,5.133007 0 0 1 0.06666,0.22066 5.133007,5.133007 0 0 1 0.02429,0.0971 18.695728,18.695728 0 0 0 0.529683,-0.13797 18.695728,18.695728 0 0 0 0.7028,-0.21343 18.695728,18.695728 0 0 0 0.693497,-0.24029 18.695728,18.695728 0 0 0 0.684196,-0.26769 18.695728,18.695728 0 0 0 0.672311,-0.29404 18.695728,18.695728 0 0 0 0.660424,-0.32039 18.695728,18.695728 0 0 0 0.647506,-0.34623 18.695728,18.695728 0 0 0 0.633553,-0.37155 18.695728,18.695728 0 0 0 0.61805,-0.39585 18.695728,18.695728 0 0 0 0.602547,-0.41961 18.695728,18.695728 0 0 0 0.585494,-0.44287 18.695728,18.695728 0 0 0 0.21084,-0.17311 l -2.473751,-2.47324 c -2.455071,-2.41968 -5.775933,-4.72659 -9.739457,-4.69015 z m -5.109249,11.69024 a 19.824362,19.824362 0 0 1 -0.04806,-0.0134 19.824362,19.824362 0 0 1 -1.34307,-0.447 19.824362,19.824362 0 0 1 -1.307414,-0.54157 19.824362,19.824362 0 0 1 -1.265556,-0.63356 19.824362,19.824362 0 0 1 -1.21698,-0.72192 19.824362,19.824362 0 0 1 -1.162203,-0.8077 19.824362,19.824362 0 0 1 -1.102258,-0.88728 19.824362,19.824362 0 0 1 -0.0047,-0.005 l -5.501473,5.50147 7.751982,7.82898 c 7.753724,7.00854 14.376635,5.65601 20.417358,0 l 7.95197,-7.95248 -5.043103,-5.04259 a 19.824362,19.824362 0 0 1 -0.334864,0.26975 19.824362,19.824362 0 0 1 -0.374137,0.28732 19.824362,19.824362 0 0 1 -0.381372,0.27802 19.824362,19.824362 0 0 1 -0.387573,0.26924 19.824362,19.824362 0 0 1 -0.393775,0.25941 19.824362,19.824362 0 0 1 -0.399975,0.25063 19.824362,19.824362 0 0 1 -0.40566,0.24081 19.824362,19.824362 0 0 1 -0.411345,0.231 19.824362,19.824362 0 0 1 -0.417029,0.22117 19.824362,19.824362 0 0 1 -0.421679,0.21084 19.824362,19.824362 0 0 1 -0.426848,0.20154 19.824362,19.824362 0 0 1 -0.431498,0.19069 19.824362,19.824362 0 0 1 -0.435632,0.18035 19.824362,19.824362 0 0 1 -0.440283,0.17053 19.824362,19.824362 0 0 1 -0.443901,0.15968 19.824362,19.824362 0 0 1 -0.447518,0.14883 19.824362,19.824362 0 0 1 -0.451135,0.13797 19.824362,19.824362 0 0 1 -0.454236,0.12764 19.824362,19.824362 0 0 1 -0.428914,0.10956 5.133007,5.133007 0 0 1 0.0031,0.14211 5.133007,5.133007 0 0 1 -0.04393,0.66973 5.133007,5.133007 0 0 1 -0.131258,0.65887 5.133007,5.133007 0 0 1 -0.215491,0.63562 5.133007,5.133007 0 0 1 -0.297139,0.60203 5.133007,5.133007 0 0 1 -0.373104,0.55862 5.133007,5.133007 0 0 1 -0.442867,0.50488 5.133007,5.133007 0 0 1 -0.504879,0.44235 5.133007,5.133007 0 0 1 -0.558105,0.37311 5.133007,5.133007 0 0 1 -0.602031,0.29714 5.133007,5.133007 0 0 1 -0.63562,0.21549 5.133007,5.133007 0 0 1 -0.658874,0.13125 5.133007,5.133007 0 0 1 -0.669727,0.0439 5.133007,5.133007 0 0 1 -0.670243,-0.0439 5.133007,5.133007 0 0 1 -0.658358,-0.13125 5.133007,5.133007 0 0 1 -0.636137,-0.21549 5.133007,5.133007 0 0 1 -0.60203,-0.29714 5.133007,5.133007 0 0 1 -0.558106,-0.37311 5.133007,5.133007 0 0 1 -0.504878,-0.44235 5.133007,5.133007 0 0 1 -0.442867,-0.50488 5.133007,5.133007 0 0 1 -0.373104,-0.55862 5.133007,5.133007 0 0 1 -0.296623,-0.60203 5.133007,5.133007 0 0 1 -0.216007,-0.63562 5.133007,5.133007 0 0 1 -0.130742,-0.65887 5.133007,5.133007 0 0 1 -0.04393,-0.66973 5.133007,5.133007 0 0 1 0.02377,-0.36484 z" /><path
         id="path2880"
         style="vector-effect:non-scaling-stroke;fill:url(#linearGradient5749);fill-opacity:1;stroke:none;stroke-width:4.55735e-05;-inkscape-stroke:hairline"
         d="m -78.936385,93.644957 -7.829496,7.751983 c -7.008519,7.75372 -5.655994,14.37663 0,20.41736 l 7.952486,7.95197 5.197615,-5.19762 a 19.824362,19.824362 0 0 1 -0.771012,-0.95705 19.824362,19.824362 0 0 1 -0.807186,-1.16272 19.824362,19.824362 0 0 1 -0.72192,-1.21698 19.824362,19.824362 0 0 1 -0.633553,-1.26555 19.824362,19.824362 0 0 1 -0.541569,-1.30741 19.824362,19.824362 0 0 1 -0.447001,-1.34256 19.824362,19.824362 0 0 1 -0.134359,-0.49092 5.133007,5.133007 0 0 1 -0.07545,-0.005 5.133007,5.133007 0 0 1 -0.658358,-0.13126 5.133007,5.133007 0 0 1 -0.63562,-0.21549 5.133007,5.133007 0 0 1 -0.602547,-0.29714 5.133007,5.133007 0 0 1 -0.558106,-0.3731 5.133007,5.133007 0 0 1 -0.504878,-0.44235 5.133007,5.133007 0 0 1 -0.442351,-0.50488 5.133007,5.133007 0 0 1 -0.373103,-0.55863 5.133007,5.133007 0 0 1 -0.29714,-0.60203 5.133007,5.133007 0 0 1 -0.216007,-0.63562 5.133007,5.133007 0 0 1 -0.130742,-0.65887 5.133007,5.133007 0 0 1 -0.04393,-0.66973 5.133007,5.133007 0 0 1 0.04393,-0.67024 5.133007,5.133007 0 0 1 0.130742,-0.65836 5.133007,5.133007 0 0 1 0.216007,-0.63562 5.133007,5.133007 0 0 1 0.29714,-0.60255 5.133007,5.133007 0 0 1 0.373103,-0.5581 5.133007,5.133007 0 0 1 0.442351,-0.50488 5.133007,5.133007 0 0 1 0.504878,-0.44235 5.133007,5.133007 0 0 1 0.558106,-0.3731 5.133007,5.133007 0 0 1 0.602547,-0.29714 5.133007,5.133007 0 0 1 0.63562,-0.21601 5.133007,5.133007 0 0 1 0.658358,-0.13074 5.133007,5.133007 0 0 1 0.07493,-0.005 19.824362,19.824362 0 0 1 0.134875,-0.49093 19.824362,19.824362 0 0 1 0.447001,-1.34307 19.824362,19.824362 0 0 1 0.541569,-1.30741 19.824362,19.824362 0 0 1 0.633553,-1.26556 19.824362,19.824362 0 0 1 0.72192,-1.21698 19.824362,19.824362 0 0 1 0.807186,-1.162203 19.824362,19.824362 0 0 1 0.738973,-0.91674 z m 2.43241,23.181533 a 18.695728,18.695728 0 0 0 0.206705,0.68161 18.695728,18.695728 0 0 0 0.240813,0.6935 18.695728,18.695728 0 0 0 0.267167,0.68368 18.695728,18.695728 0 0 0 0.294039,0.67283 18.695728,18.695728 0 0 0 0.320393,0.66042 18.695728,18.695728 0 0 0 0.346233,0.64751 18.695728,18.695728 0 0 0 0.371036,0.63303 18.695728,18.695728 0 0 0 0.395842,0.61857 18.695728,18.695728 0 0 0 0.420129,0.60203 18.695728,18.695728 0 0 0 0.442867,0.58549 18.695728,18.695728 0 0 0 0.381372,0.46509 l 2.324406,-2.3244 c 4.185408,-4.24662 8.033566,-11.08402 0,-19.35696 l -2.356962,-2.357483 a 18.695728,18.695728 0 0 0 -0.348816,0.425303 18.695728,18.695728 0 0 0 -0.442867,0.58497 18.695728,18.695728 0 0 0 -0.420129,0.60255 18.695728,18.695728 0 0 0 -0.395842,0.61805 18.695728,18.695728 0 0 0 -0.371036,0.63355 18.695728,18.695728 0 0 0 -0.346233,0.64751 18.695728,18.695728 0 0 0 -0.320393,0.66042 18.695728,18.695728 0 0 0 -0.294039,0.67231 18.695728,18.695728 0 0 0 -0.267684,0.6842 18.695728,18.695728 0 0 0 -0.240296,0.6935 18.695728,18.695728 0 0 0 -0.205155,0.67799 5.133007,5.133007 0 0 1 0.133842,0.0155 5.133007,5.133007 0 0 1 0.234094,0.0382 5.133007,5.133007 0 0 1 0.232027,0.0491 5.133007,5.133007 0 0 1 0.229444,0.0594 5.133007,5.133007 0 0 1 0.226859,0.0703 5.133007,5.133007 0 0 1 0.222726,0.0806 5.133007,5.133007 0 0 1 0.219108,0.0904 5.133007,5.133007 0 0 1 0.214457,0.10076 5.133007,5.133007 0 0 1 0.209806,0.11059 5.133007,5.133007 0 0 1 0.204639,0.12041 5.133007,5.133007 0 0 1 0.198437,0.12919 5.133007,5.133007 0 0 1 0.192753,0.13849 5.133007,5.133007 0 0 1 0.186036,0.14728 5.133007,5.133007 0 0 1 0.1788,0.15555 5.133007,5.133007 0 0 1 0.171566,0.16381 5.133007,5.133007 0 0 1 0.163814,0.17157 5.133007,5.133007 0 0 1 0.155546,0.1788 5.133007,5.133007 0 0 1 0.147278,0.18603 5.133007,5.133007 0 0 1 0.138493,0.19224 5.133007,5.133007 0 0 1 0.129191,0.19895 5.133007,5.133007 0 0 1 0.120406,0.20464 5.133007,5.133007 0 0 1 0.110588,0.20929 5.133007,5.133007 0 0 1 0.100769,0.21497 5.133007,5.133007 0 0 1 0.09043,0.21911 5.133007,5.133007 0 0 1 0.08062,0.22273 5.133007,5.133007 0 0 1 0.07028,0.22686 5.133007,5.133007 0 0 1 0.05943,0.22944 5.133007,5.133007 0 0 1 0.04909,0.23203 5.133007,5.133007 0 0 1 0.03824,0.23409 5.133007,5.133007 0 0 1 0.02739,0.23513 5.133007,5.133007 0 0 1 0.01602,0.23668 5.133007,5.133007 0 0 1 0.0057,0.23719 5.133007,5.133007 0 0 1 -0.04393,0.66973 5.133007,5.133007 0 0 1 -0.131258,0.65887 5.133007,5.133007 0 0 1 -0.215491,0.63562 5.133007,5.133007 0 0 1 -0.297139,0.60203 5.133007,5.133007 0 0 1 -0.373104,0.55863 5.133007,5.133007 0 0 1 -0.44235,0.50488 5.133007,5.133007 0 0 1 -0.504879,0.44235 5.133007,5.133007 0 0 1 -0.558622,0.3731 5.133007,5.133007 0 0 1 -0.602031,0.29714 5.133007,5.133007 0 0 1 -0.63562,0.21549 5.133007,5.133007 0 0 1 -0.658874,0.13126 5.133007,5.133007 0 0 1 -0.09612,0.006 z" /><path
         id="path2894"
         style="vector-effect:non-scaling-stroke;fill:url(#linearGradient11945);fill-opacity:1;stroke:none;stroke-width:4.55735e-05;-inkscape-stroke:hairline"
         d="m -38.63962,94.084207 -4.813143,4.76612 a 19.824362,19.824362 0 0 1 0.806153,1.00045 19.824362,19.824362 0 0 1 0.807185,1.162723 19.824362,19.824362 0 0 1 0.72192,1.21698 19.824362,19.824362 0 0 1 0.633553,1.26556 19.824362,19.824362 0 0 1 0.541569,1.30741 19.824362,19.824362 0 0 1 0.447001,1.34255 19.824362,19.824362 0 0 1 0.270268,1.03405 5.133007,5.133007 0 0 1 0.212907,0.0346 5.133007,5.133007 0 0 1 0.232027,0.0491 5.133007,5.133007 0 0 1 0.229444,0.0594 5.133007,5.133007 0 0 1 0.226342,0.0703 5.133007,5.133007 0 0 1 0.223243,0.0806 5.133007,5.133007 0 0 1 0.219108,0.0904 5.133007,5.133007 0 0 1 0.214457,0.10077 5.133007,5.133007 0 0 1 0.209806,0.11059 5.133007,5.133007 0 0 1 0.204639,0.1204 5.133007,5.133007 0 0 1 0.198437,0.1292 5.133007,5.133007 0 0 1 0.192753,0.13849 5.133007,5.133007 0 0 1 0.186036,0.14728 5.133007,5.133007 0 0 1 0.1788,0.15554 5.133007,5.133007 0 0 1 0.171566,0.16382 5.133007,5.133007 0 0 1 0.163297,0.17156 5.133007,5.133007 0 0 1 0.156063,0.1788 5.133007,5.133007 0 0 1 0.147278,0.18604 5.133007,5.133007 0 0 1 0.138493,0.19223 5.133007,5.133007 0 0 1 0.129191,0.19896 5.133007,5.133007 0 0 1 0.120406,0.20464 5.133007,5.133007 0 0 1 0.110071,0.20929 5.133007,5.133007 0 0 1 0.100769,0.21497 5.133007,5.133007 0 0 1 0.09095,0.21911 5.133007,5.133007 0 0 1 0.08062,0.22272 5.133007,5.133007 0 0 1 0.07028,0.22686 5.133007,5.133007 0 0 1 0.05943,0.22945 5.133007,5.133007 0 0 1 0.04909,0.23202 5.133007,5.133007 0 0 1 0.03824,0.2341 5.133007,5.133007 0 0 1 0.02687,0.23513 5.133007,5.133007 0 0 1 0.01654,0.23667 5.133007,5.133007 0 0 1 0.0057,0.2372 5.133007,5.133007 0 0 1 -0.04392,0.66973 5.133007,5.133007 0 0 1 -0.131258,0.65887 5.133007,5.133007 0 0 1 -0.215491,0.63562 5.133007,5.133007 0 0 1 -0.297139,0.60203 5.133007,5.133007 0 0 1 -0.373104,0.55862 5.133007,5.133007 0 0 1 -0.44235,0.50488 5.133007,5.133007 0 0 1 -0.504879,0.44235 5.133007,5.133007 0 0 1 -0.558622,0.37311 5.133007,5.133007 0 0 1 -0.602031,0.29714 5.133007,5.133007 0 0 1 -0.63562,0.21549 5.133007,5.133007 0 0 1 -0.658874,0.13125 5.133007,5.133007 0 0 1 -0.224276,0.0145 19.824362,19.824362 0 0 1 -0.123507,0.40308 19.824362,19.824362 0 0 1 -0.149345,0.44803 19.824362,19.824362 0 0 1 -0.15968,0.44391 19.824362,19.824362 0 0 1 -0.170015,0.44028 19.824362,19.824362 0 0 1 -0.180351,0.43563 19.824362,19.824362 0 0 1 -0.191203,0.4315 19.824362,19.824362 0 0 1 -0.201021,0.42685 19.824362,19.824362 0 0 1 -0.21084,0.42168 19.824362,19.824362 0 0 1 -0.221175,0.41702 19.824362,19.824362 0 0 1 -0.230994,0.41135 19.824362,19.824362 0 0 1 -0.240812,0.40566 19.824362,19.824362 0 0 1 -0.250631,0.39997 19.824362,19.824362 0 0 1 -0.259415,0.39378 19.824362,19.824362 0 0 1 -0.269235,0.38757 19.824362,19.824362 0 0 1 -0.278019,0.38086 19.824362,19.824362 0 0 1 -0.287321,0.37465 19.824362,19.824362 0 0 1 -0.296106,0.36742 19.824362,19.824362 0 0 1 -0.304891,0.36019 19.824362,19.824362 0 0 1 -0.222725,0.25114 l 5.241024,5.24103 8.320422,-8.32042 c 4.185407,-4.24663 8.033567,-11.08402 0,-19.35696 z m -1.745113,13.071033 a 18.695728,18.695728 0 0 0 -0.07441,-0.29197 18.695728,18.695728 0 0 0 -0.132809,-0.47129 18.695728,18.695728 0 0 0 -0.14521,-0.46715 18.695728,18.695728 0 0 0 -0.157097,-0.46354 18.695728,18.695728 0 0 0 -0.169498,-0.4594 18.695728,18.695728 0 0 0 -0.181385,-0.45475 18.695728,18.695728 0 0 0 -0.193269,-0.44959 18.695728,18.695728 0 0 0 -0.204639,-0.44442 18.695728,18.695728 0 0 0 -0.216524,-0.43873 18.695728,18.695728 0 0 0 -0.227893,-0.43357 18.695728,18.695728 0 0 0 -0.239262,-0.42684 18.695728,18.695728 0 0 0 -0.250114,-0.42065 18.695728,18.695728 0 0 0 -0.261483,-0.41393 18.695728,18.695728 0 0 0 -0.271818,-0.40669 18.695728,18.695728 0 0 0 -0.282153,-0.39998 18.695728,18.695728 0 0 0 -0.293006,-0.39222 18.695728,18.695728 0 0 0 -0.302824,-0.384473 18.695728,18.695728 0 0 0 -0.267167,-0.32143 l -2.214335,2.192633 c -7.00852,7.75373 -5.655993,14.37665 0,20.41736 l 1.910995,1.9389 a 18.695728,18.695728 0 0 0 0.258382,-0.29094 18.695728,18.695728 0 0 0 0.465604,-0.56741 18.695728,18.695728 0 0 0 0.443384,-0.58549 18.695728,18.695728 0 0 0 0.419613,-0.60203 18.695728,18.695728 0 0 0 0.395841,-0.61857 18.695728,18.695728 0 0 0 0.371037,-0.63303 18.695728,18.695728 0 0 0 0.346232,-0.64751 18.695728,18.695728 0 0 0 0.320394,-0.66042 18.695728,18.695728 0 0 0 0.294039,-0.67283 18.695728,18.695728 0 0 0 0.267684,-0.68368 18.695728,18.695728 0 0 0 0.240295,-0.6935 18.695728,18.695728 0 0 0 0.05168,-0.17053 5.133007,5.133007 0 0 1 -0.599447,-0.11937 5.133007,5.133007 0 0 1 -0.63562,-0.21549 5.133007,5.133007 0 0 1 -0.602547,-0.29714 5.133007,5.133007 0 0 1 -0.558106,-0.37311 5.133007,5.133007 0 0 1 -0.504878,-0.44235 5.133007,5.133007 0 0 1 -0.442868,-0.50488 5.133007,5.133007 0 0 1 -0.372587,-0.55862 5.133007,5.133007 0 0 1 -0.297139,-0.60203 5.133007,5.133007 0 0 1 -0.216008,-0.63562 5.133007,5.133007 0 0 1 -0.130741,-0.65887 5.133007,5.133007 0 0 1 -0.04393,-0.66973 5.133007,5.133007 0 0 1 0.04393,-0.67024 5.133007,5.133007 0 0 1 0.130741,-0.65836 5.133007,5.133007 0 0 1 0.216008,-0.63562 5.133007,5.133007 0 0 1 0.297139,-0.60255 5.133007,5.133007 0 0 1 0.372587,-0.5581 5.133007,5.133007 0 0 1 0.442868,-0.50488 5.133007,5.133007 0 0 1 0.504878,-0.44235 5.133007,5.133007 0 0 1 0.558106,-0.37311 5.133007,5.133007 0 0 1 0.602547,-0.29714 5.133007,5.133007 0 0 1 0.63562,-0.216 5.133007,5.133007 0 0 1 0.658358,-0.13075 5.133007,5.133007 0 0 1 0.240812,-0.016 z" /></g></g></svg>
