<?xml version="1.0" encoding="UTF-8" standalone="no"?>
<!-- Created with Inkscape (http://www.inkscape.org/) -->

<svg
   width="512"
   height="139"
   viewBox="0 0 135.46666 36.777083"
   version="1.1"
   id="svg5"
   xml:space="preserve"
   inkscape:version="1.2.2 (732a01da63, 2022-12-09, custom)"
   sodipodi:docname="logo"
   xmlns:inkscape="http://www.inkscape.org/namespaces/inkscape"
   xmlns:sodipodi="http://sodipodi.sourceforge.net/DTD/sodipodi-0.dtd"
   xmlns:xlink="http://www.w3.org/1999/xlink"
   xmlns="http://www.w3.org/2000/svg"
   xmlns:svg="http://www.w3.org/2000/svg"><sodipodi:namedview
     id="namedview7"
     pagecolor="#ffffff"
     bordercolor="#000000"
     borderopacity="0.25"
     inkscape:showpageshadow="2"
     inkscape:pageopacity="0.0"
     inkscape:pagecheckerboard="0"
     inkscape:deskcolor="#d1d1d1"
     inkscape:document-units="mm"
     showgrid="false"
     inkscape:zoom="2.3518519"
     inkscape:cx="263.19685"
     inkscape:cy="108.85039"
     inkscape:window-width="1600"
     inkscape:window-height="830"
     inkscape:window-x="0"
     inkscape:window-y="34"
     inkscape:window-maximized="1"
     inkscape:current-layer="layer1" /><defs
     id="defs2"><linearGradient
       inkscape:collect="always"
       id="linearGradient13403"><stop
         style="stop-color:#dfa749;stop-opacity:1;"
         offset="0"
         id="stop13399" /><stop
         style="stop-color:#eccb93;stop-opacity:1;"
         offset="1"
         id="stop13401" /></linearGradient><linearGradient
       inkscape:collect="always"
       id="linearGradient11943"><stop
         style="stop-color:#54a6f2;stop-opacity:1;"
         offset="0"
         id="stop11939" /><stop
         style="stop-color:#0e69be;stop-opacity:1;"
         offset="1"
         id="stop11941" /></linearGradient><linearGradient
       inkscape:collect="always"
       id="linearGradient5747"><stop
         style="stop-color:#0e69be;stop-opacity:1;"
         offset="0"
         id="stop5743" /><stop
         style="stop-color:#54a6f2;stop-opacity:1;"
         offset="1"
         id="stop5745" /></linearGradient><linearGradient
       inkscape:collect="always"
       id="linearGradient2994"><stop
         style="stop-color:#49a43d;stop-opacity:1;"
         offset="0"
         id="stop2990" /><stop
         style="stop-color:#8ad081;stop-opacity:1;"
         offset="1"
         id="stop2992" /></linearGradient><linearGradient
       inkscape:collect="always"
       xlink:href="#linearGradient2994"
       id="linearGradient2996"
       x1="-58.544865"
       y1="78.660858"
       x2="-58.273666"
       y2="104.38274"
       gradientUnits="userSpaceOnUse" /><linearGradient
       inkscape:collect="always"
       xlink:href="#linearGradient5747"
       id="linearGradient5749"
       x1="-91.528542"
       y1="111.70561"
       x2="-65.80233"
       y2="111.70561"
       gradientUnits="userSpaceOnUse" /><linearGradient
       inkscape:collect="always"
       xlink:href="#linearGradient11943"
       id="linearGradient11945"
       x1="-51.232288"
       y1="112.14484"
       x2="-25.505018"
       y2="112.14484"
       gradientUnits="userSpaceOnUse" /><linearGradient
       inkscape:collect="always"
       xlink:href="#linearGradient13403"
       id="linearGradient13405"
       x1="-58.944633"
       y1="144.80241"
       x2="-58.94434"
       y2="119.07628"
       gradientUnits="userSpaceOnUse" /></defs><g
     inkscape:label="Camada 1"
     inkscape:groupmode="layer"
     id="layer1"><g
       id="g1151"
       transform="matrix(0.55220107,0,0,0.55220107,-7.2732289,-48.771812)"
       style="stroke-width:1.81093"><g
         id="g14863"
         transform="translate(104.69988,9.8916836)"
         style="stroke-width:1.81093"><path
           id="path2887"
           style="vector-effect:non-scaling-stroke;fill:url(#linearGradient2996);fill-opacity:1;stroke:none;stroke-width:0.000169032;-inkscape-stroke:hairline"
           d="m -58.544865,78.660857 c -2.892346,0.02659 -6.126834,1.301509 -9.616984,4.69067 l -8.443929,8.44341 5.002279,5.05189 a 19.824362,19.824362 0 0 1 0.104903,-0.0977 19.824362,19.824362 0 0 1 1.101741,-0.88832 19.824362,19.824362 0 0 1 1.16272,-0.80718 19.824362,19.824362 0 0 1 1.21698,-0.72192 19.824362,19.824362 0 0 1 1.265556,-0.63355 19.824362,19.824362 0 0 1 1.307414,-0.54157 19.824362,19.824362 0 0 1 1.342553,-0.44649 19.824362,19.824362 0 0 1 0.487309,-0.13384 5.133007,5.133007 0 0 1 0.0088,-0.13539 5.133007,5.133007 0 0 1 0.130741,-0.65836 5.133007,5.133007 0 0 1 0.216008,-0.63562 5.133007,5.133007 0 0 1 0.297139,-0.60255 5.133007,5.133007 0 0 1 0.373104,-0.5581 5.133007,5.133007 0 0 1 0.442351,-0.50488 5.133007,5.133007 0 0 1 0.504878,-0.44287 5.133007,5.133007 0 0 1 0.558106,-0.37259 5.133007,5.133007 0 0 1 0.602547,-0.29714 5.133007,5.133007 0 0 1 0.63562,-0.216 5.133007,5.133007 0 0 1 0.658358,-0.13074 5.133007,5.133007 0 0 1 0.670243,-0.0439 5.133007,5.133007 0 0 1 0.230477,0.005 5.133007,5.133007 0 0 1 0.229443,0.0155 5.133007,5.133007 0 0 1 0.228927,0.0258 5.133007,5.133007 0 0 1 0.227893,0.0357 5.133007,5.133007 0 0 1 0.225309,0.0465 5.133007,5.133007 0 0 1 0.223243,0.0563 5.133007,5.133007 0 0 1 0.220658,0.0661 5.133007,5.133007 0 0 1 0.217558,0.076 5.133007,5.133007 0 0 1 0.21394,0.0858 5.133007,5.133007 0 0 1 0.209806,0.0956 5.133007,5.133007 0 0 1 0.205156,0.10438 5.133007,5.133007 0 0 1 0.200504,0.11369 5.133007,5.133007 0 0 1 0.194821,0.12247 5.133007,5.133007 0 0 1 0.189135,0.13126 5.133007,5.133007 0 0 1 0.183452,0.13953 5.133007,5.133007 0 0 1 0.176733,0.14779 5.133007,5.133007 0 0 1 0.170015,0.15503 5.133007,5.133007 0 0 1 0.162781,0.1633 5.133007,5.133007 0 0 1 0.155546,0.17002 5.133007,5.133007 0 0 1 0.147795,0.17673 5.133007,5.133007 0 0 1 0.139526,0.18293 5.133007,5.133007 0 0 1 0.131258,0.18966 5.133007,5.133007 0 0 1 0.122474,0.19482 5.133007,5.133007 0 0 1 0.113688,0.2005 5.133007,5.133007 0 0 1 0.104386,0.20516 5.133007,5.133007 0 0 1 0.0956,0.2098 5.133007,5.133007 0 0 1 0.08578,0.21394 5.133007,5.133007 0 0 1 0.07596,0.21704 5.133007,5.133007 0 0 1 0.06615,0.22066 5.133007,5.133007 0 0 1 0.05633,0.22376 5.133007,5.133007 0 0 1 0.04599,0.22531 5.133007,5.133007 0 0 1 0.03617,0.22789 5.133007,5.133007 0 0 1 0.01757,0.15607 19.824362,19.824362 0 0 1 0.481108,0.13177 19.824362,19.824362 0 0 1 1.342554,0.447 19.824362,19.824362 0 0 1 1.307413,0.54157 19.824362,19.824362 0 0 1 1.265556,0.63304 19.824362,19.824362 0 0 1 1.21698,0.72243 19.824362,19.824362 0 0 1 1.16272,0.80719 19.824362,19.824362 0 0 1 1.086755,0.8754 l 5.064807,-5.06481 -8.320939,-8.32042 c -2.455071,-2.419683 -5.775872,-4.727109 -9.739457,-4.69067 z m -5.063257,15.08125 a 18.695728,18.695728 0 0 0 -0.685746,0.20774 18.695728,18.695728 0 0 0 -0.693498,0.24081 18.695728,18.695728 0 0 0 -0.683679,0.26717 18.695728,18.695728 0 0 0 -0.67231,0.29455 18.695728,18.695728 0 0 0 -0.660942,0.3204 18.695728,18.695728 0 0 0 -0.647506,0.34571 18.695728,18.695728 0 0 0 -0.633553,0.37156 18.695728,18.695728 0 0 0 -0.61805,0.39532 18.695728,18.695728 0 0 0 -0.60203,0.41961 18.695728,18.695728 0 0 0 -0.585494,0.44339 18.695728,18.695728 0 0 0 -0.567407,0.46612 18.695728,18.695728 0 0 0 -0.150896,0.13384 l 1.955437,1.97507 c 7.753723,7.008543 14.376634,5.656013 20.417358,0 l 2.087211,-2.08669 a 18.695728,18.695728 0 0 0 -0.02532,-0.0217 18.695728,18.695728 0 0 0 -0.376205,-0.31368 18.695728,18.695728 0 0 0 -0.384472,-0.30282 18.695728,18.695728 0 0 0 -0.392225,-0.29301 18.695728,18.695728 0 0 0 -0.399975,-0.28164 18.695728,18.695728 0 0 0 -0.406694,-0.27181 18.695728,18.695728 0 0 0 -0.413928,-0.26149 18.695728,18.695728 0 0 0 -0.420646,-0.25063 18.695728,18.695728 0 0 0 -0.426847,-0.23926 18.695728,18.695728 0 0 0 -0.433566,-0.22738 18.695728,18.695728 0 0 0 -0.438733,-0.21704 18.695728,18.695728 0 0 0 -0.444417,-0.20463 18.695728,18.695728 0 0 0 -0.449585,-0.19327 18.695728,18.695728 0 0 0 -0.454752,-0.18139 18.695728,18.695728 0 0 0 -0.459404,-0.1695 18.695728,18.695728 0 0 0 -0.463537,-0.15709 18.695728,18.695728 0 0 0 -0.467155,-0.14521 18.695728,18.695728 0 0 0 -0.218075,-0.0615 5.133007,5.133007 0 0 1 -0.0026,0.0372 5.133007,5.133007 0 0 1 -0.131258,0.65887 5.133007,5.133007 0 0 1 -0.215491,0.63562 5.133007,5.133007 0 0 1 -0.297139,0.60203 5.133007,5.133007 0 0 1 -0.373104,0.55862 5.133007,5.133007 0 0 1 -0.44235,0.50488 5.133007,5.133007 0 0 1 -0.504879,0.44235 5.133007,5.133007 0 0 1 -0.558622,0.37311 5.133007,5.133007 0 0 1 -0.602031,0.29714 5.133007,5.133007 0 0 1 -0.63562,0.21549 5.133007,5.133007 0 0 1 -0.658874,0.13126 5.133007,5.133007 0 0 1 -0.669727,0.0439 5.133007,5.133007 0 0 1 -0.670243,-0.0439 5.133007,5.133007 0 0 1 -0.658358,-0.13126 5.133007,5.133007 0 0 1 -0.63562,-0.21549 5.133007,5.133007 0 0 1 -0.602547,-0.29714 5.133007,5.133007 0 0 1 -0.558106,-0.37311 5.133007,5.133007 0 0 1 -0.504878,-0.44235 5.133007,5.133007 0 0 1 -0.442351,-0.50488 5.133007,5.133007 0 0 1 -0.373104,-0.55862 5.133007,5.133007 0 0 1 -0.297139,-0.60203 5.133007,5.133007 0 0 1 -0.216008,-0.63562 5.133007,5.133007 0 0 1 -0.130741,-0.65887 5.133007,5.133007 0 0 1 -0.0026,-0.0388 z" /><path
           id="path2901"
           style="vector-effect:non-scaling-stroke;fill:url(#linearGradient13405);fill-opacity:1;stroke:none;stroke-width:0.000169032;-inkscape-stroke:hairline"
           d="m -58.944324,119.07648 c -2.892301,0.0266 -6.126834,1.301 -9.616984,4.69015 l -2.141471,2.14148 a 18.695728,18.695728 0 0 0 0.04444,0.0393 18.695728,18.695728 0 0 0 0.567407,0.4656 18.695728,18.695728 0 0 0 0.585494,0.44287 18.695728,18.695728 0 0 0 0.60203,0.41961 18.695728,18.695728 0 0 0 0.61805,0.39585 18.695728,18.695728 0 0 0 0.633553,0.37155 18.695728,18.695728 0 0 0 0.647506,0.34623 18.695728,18.695728 0 0 0 0.660425,0.32039 18.695728,18.695728 0 0 0 0.672827,0.29404 18.695728,18.695728 0 0 0 0.683679,0.26769 18.695728,18.695728 0 0 0 0.693498,0.24029 18.695728,18.695728 0 0 0 0.444417,0.13488 5.133007,5.133007 0 0 1 0.162781,-0.47904 5.133007,5.133007 0 0 1 0.296623,-0.60255 5.133007,5.133007 0 0 1 0.373104,-0.5581 5.133007,5.133007 0 0 1 0.442867,-0.50488 5.133007,5.133007 0 0 1 0.504878,-0.44235 5.133007,5.133007 0 0 1 0.558106,-0.37311 5.133007,5.133007 0 0 1 0.60203,-0.29714 5.133007,5.133007 0 0 1 0.636137,-0.216 5.133007,5.133007 0 0 1 0.658358,-0.13075 5.133007,5.133007 0 0 1 0.670243,-0.0439 5.133007,5.133007 0 0 1 0.22996,0.005 5.133007,5.133007 0 0 1 0.229961,0.0155 5.133007,5.133007 0 0 1 0.228926,0.0258 5.133007,5.133007 0 0 1 0.227376,0.0362 5.133007,5.133007 0 0 1 0.225826,0.046 5.133007,5.133007 0 0 1 0.223243,0.0563 5.133007,5.133007 0 0 1 0.220658,0.0661 5.133007,5.133007 0 0 1 0.217558,0.076 5.133007,5.133007 0 0 1 0.21394,0.0858 5.133007,5.133007 0 0 1 0.20929,0.0956 5.133007,5.133007 0 0 1 0.205672,0.10438 5.133007,5.133007 0 0 1 0.199988,0.11369 5.133007,5.133007 0 0 1 0.195337,0.12247 5.133007,5.133007 0 0 1 0.189135,0.13126 5.133007,5.133007 0 0 1 0.183452,0.13953 5.133007,5.133007 0 0 1 0.176733,0.14779 5.133007,5.133007 0 0 1 0.170016,0.15503 5.133007,5.133007 0 0 1 0.16278,0.1633 5.133007,5.133007 0 0 1 0.155546,0.17001 5.133007,5.133007 0 0 1 0.147795,0.17674 5.133007,5.133007 0 0 1 0.139526,0.18293 5.133007,5.133007 0 0 1 0.130742,0.18965 5.133007,5.133007 0 0 1 0.12299,0.19482 5.133007,5.133007 0 0 1 0.113688,0.20051 5.133007,5.133007 0 0 1 0.104386,0.20515 5.133007,5.133007 0 0 1 0.09508,0.20981 5.133007,5.133007 0 0 1 0.08578,0.21394 5.133007,5.133007 0 0 1 0.07596,0.21704 5.133007,5.133007 0 0 1 0.06666,0.22066 5.133007,5.133007 0 0 1 0.02429,0.0971 18.695728,18.695728 0 0 0 0.529683,-0.13797 18.695728,18.695728 0 0 0 0.7028,-0.21343 18.695728,18.695728 0 0 0 0.693497,-0.24029 18.695728,18.695728 0 0 0 0.684196,-0.26769 18.695728,18.695728 0 0 0 0.672311,-0.29404 18.695728,18.695728 0 0 0 0.660424,-0.32039 18.695728,18.695728 0 0 0 0.647506,-0.34623 18.695728,18.695728 0 0 0 0.633553,-0.37155 18.695728,18.695728 0 0 0 0.61805,-0.39585 18.695728,18.695728 0 0 0 0.602547,-0.41961 18.695728,18.695728 0 0 0 0.585494,-0.44287 18.695728,18.695728 0 0 0 0.21084,-0.17311 l -2.473751,-2.47324 c -2.455071,-2.41968 -5.775933,-4.72659 -9.739457,-4.69015 z m -5.109249,11.69024 a 19.824362,19.824362 0 0 1 -0.04806,-0.0134 19.824362,19.824362 0 0 1 -1.34307,-0.447 19.824362,19.824362 0 0 1 -1.307414,-0.54157 19.824362,19.824362 0 0 1 -1.265556,-0.63356 19.824362,19.824362 0 0 1 -1.21698,-0.72192 19.824362,19.824362 0 0 1 -1.162203,-0.8077 19.824362,19.824362 0 0 1 -1.102258,-0.88728 19.824362,19.824362 0 0 1 -0.0047,-0.005 l -5.501473,5.50147 7.751982,7.82898 c 7.753724,7.00854 14.376635,5.65601 20.417358,0 l 7.95197,-7.95248 -5.043103,-5.04259 a 19.824362,19.824362 0 0 1 -0.334864,0.26975 19.824362,19.824362 0 0 1 -0.374137,0.28732 19.824362,19.824362 0 0 1 -0.381372,0.27802 19.824362,19.824362 0 0 1 -0.387573,0.26924 19.824362,19.824362 0 0 1 -0.393775,0.25941 19.824362,19.824362 0 0 1 -0.399975,0.25063 19.824362,19.824362 0 0 1 -0.40566,0.24081 19.824362,19.824362 0 0 1 -0.411345,0.231 19.824362,19.824362 0 0 1 -0.417029,0.22117 19.824362,19.824362 0 0 1 -0.421679,0.21084 19.824362,19.824362 0 0 1 -0.426848,0.20154 19.824362,19.824362 0 0 1 -0.431498,0.19069 19.824362,19.824362 0 0 1 -0.435632,0.18035 19.824362,19.824362 0 0 1 -0.440283,0.17053 19.824362,19.824362 0 0 1 -0.443901,0.15968 19.824362,19.824362 0 0 1 -0.447518,0.14883 19.824362,19.824362 0 0 1 -0.451135,0.13797 19.824362,19.824362 0 0 1 -0.454236,0.12764 19.824362,19.824362 0 0 1 -0.428914,0.10956 5.133007,5.133007 0 0 1 0.0031,0.14211 5.133007,5.133007 0 0 1 -0.04393,0.66973 5.133007,5.133007 0 0 1 -0.131258,0.65887 5.133007,5.133007 0 0 1 -0.215491,0.63562 5.133007,5.133007 0 0 1 -0.297139,0.60203 5.133007,5.133007 0 0 1 -0.373104,0.55862 5.133007,5.133007 0 0 1 -0.442867,0.50488 5.133007,5.133007 0 0 1 -0.504879,0.44235 5.133007,5.133007 0 0 1 -0.558105,0.37311 5.133007,5.133007 0 0 1 -0.602031,0.29714 5.133007,5.133007 0 0 1 -0.63562,0.21549 5.133007,5.133007 0 0 1 -0.658874,0.13125 5.133007,5.133007 0 0 1 -0.669727,0.0439 5.133007,5.133007 0 0 1 -0.670243,-0.0439 5.133007,5.133007 0 0 1 -0.658358,-0.13125 5.133007,5.133007 0 0 1 -0.636137,-0.21549 5.133007,5.133007 0 0 1 -0.60203,-0.29714 5.133007,5.133007 0 0 1 -0.558106,-0.37311 5.133007,5.133007 0 0 1 -0.504878,-0.44235 5.133007,5.133007 0 0 1 -0.442867,-0.50488 5.133007,5.133007 0 0 1 -0.373104,-0.55862 5.133007,5.133007 0 0 1 -0.296623,-0.60203 5.133007,5.133007 0 0 1 -0.216007,-0.63562 5.133007,5.133007 0 0 1 -0.130742,-0.65887 5.133007,5.133007 0 0 1 -0.04393,-0.66973 5.133007,5.133007 0 0 1 0.02377,-0.36484 z" /><path
           id="path2880"
           style="vector-effect:non-scaling-stroke;fill:url(#linearGradient5749);fill-opacity:1;stroke:none;stroke-width:0.000169032;-inkscape-stroke:hairline"
           d="m -78.936385,93.644957 -7.829496,7.751983 c -7.008519,7.75372 -5.655994,14.37663 0,20.41736 l 7.952486,7.95197 5.197615,-5.19762 a 19.824362,19.824362 0 0 1 -0.771012,-0.95705 19.824362,19.824362 0 0 1 -0.807186,-1.16272 19.824362,19.824362 0 0 1 -0.72192,-1.21698 19.824362,19.824362 0 0 1 -0.633553,-1.26555 19.824362,19.824362 0 0 1 -0.541569,-1.30741 19.824362,19.824362 0 0 1 -0.447001,-1.34256 19.824362,19.824362 0 0 1 -0.134359,-0.49092 5.133007,5.133007 0 0 1 -0.07545,-0.005 5.133007,5.133007 0 0 1 -0.658358,-0.13126 5.133007,5.133007 0 0 1 -0.63562,-0.21549 5.133007,5.133007 0 0 1 -0.602547,-0.29714 5.133007,5.133007 0 0 1 -0.558106,-0.3731 5.133007,5.133007 0 0 1 -0.504878,-0.44235 5.133007,5.133007 0 0 1 -0.442351,-0.50488 5.133007,5.133007 0 0 1 -0.373103,-0.55863 5.133007,5.133007 0 0 1 -0.29714,-0.60203 5.133007,5.133007 0 0 1 -0.216007,-0.63562 5.133007,5.133007 0 0 1 -0.130742,-0.65887 5.133007,5.133007 0 0 1 -0.04393,-0.66973 5.133007,5.133007 0 0 1 0.04393,-0.67024 5.133007,5.133007 0 0 1 0.130742,-0.65836 5.133007,5.133007 0 0 1 0.216007,-0.63562 5.133007,5.133007 0 0 1 0.29714,-0.60255 5.133007,5.133007 0 0 1 0.373103,-0.5581 5.133007,5.133007 0 0 1 0.442351,-0.50488 5.133007,5.133007 0 0 1 0.504878,-0.44235 5.133007,5.133007 0 0 1 0.558106,-0.3731 5.133007,5.133007 0 0 1 0.602547,-0.29714 5.133007,5.133007 0 0 1 0.63562,-0.21601 5.133007,5.133007 0 0 1 0.658358,-0.13074 5.133007,5.133007 0 0 1 0.07493,-0.005 19.824362,19.824362 0 0 1 0.134875,-0.49093 19.824362,19.824362 0 0 1 0.447001,-1.34307 19.824362,19.824362 0 0 1 0.541569,-1.30741 19.824362,19.824362 0 0 1 0.633553,-1.26556 19.824362,19.824362 0 0 1 0.72192,-1.21698 19.824362,19.824362 0 0 1 0.807186,-1.162203 19.824362,19.824362 0 0 1 0.738973,-0.91674 z m 2.43241,23.181533 a 18.695728,18.695728 0 0 0 0.206705,0.68161 18.695728,18.695728 0 0 0 0.240813,0.6935 18.695728,18.695728 0 0 0 0.267167,0.68368 18.695728,18.695728 0 0 0 0.294039,0.67283 18.695728,18.695728 0 0 0 0.320393,0.66042 18.695728,18.695728 0 0 0 0.346233,0.64751 18.695728,18.695728 0 0 0 0.371036,0.63303 18.695728,18.695728 0 0 0 0.395842,0.61857 18.695728,18.695728 0 0 0 0.420129,0.60203 18.695728,18.695728 0 0 0 0.442867,0.58549 18.695728,18.695728 0 0 0 0.381372,0.46509 l 2.324406,-2.3244 c 4.185408,-4.24662 8.033566,-11.08402 0,-19.35696 l -2.356962,-2.357483 a 18.695728,18.695728 0 0 0 -0.348816,0.425303 18.695728,18.695728 0 0 0 -0.442867,0.58497 18.695728,18.695728 0 0 0 -0.420129,0.60255 18.695728,18.695728 0 0 0 -0.395842,0.61805 18.695728,18.695728 0 0 0 -0.371036,0.63355 18.695728,18.695728 0 0 0 -0.346233,0.64751 18.695728,18.695728 0 0 0 -0.320393,0.66042 18.695728,18.695728 0 0 0 -0.294039,0.67231 18.695728,18.695728 0 0 0 -0.267684,0.6842 18.695728,18.695728 0 0 0 -0.240296,0.6935 18.695728,18.695728 0 0 0 -0.205155,0.67799 5.133007,5.133007 0 0 1 0.133842,0.0155 5.133007,5.133007 0 0 1 0.234094,0.0382 5.133007,5.133007 0 0 1 0.232027,0.0491 5.133007,5.133007 0 0 1 0.229444,0.0594 5.133007,5.133007 0 0 1 0.226859,0.0703 5.133007,5.133007 0 0 1 0.222726,0.0806 5.133007,5.133007 0 0 1 0.219108,0.0904 5.133007,5.133007 0 0 1 0.214457,0.10076 5.133007,5.133007 0 0 1 0.209806,0.11059 5.133007,5.133007 0 0 1 0.204639,0.12041 5.133007,5.133007 0 0 1 0.198437,0.12919 5.133007,5.133007 0 0 1 0.192753,0.13849 5.133007,5.133007 0 0 1 0.186036,0.14728 5.133007,5.133007 0 0 1 0.1788,0.15555 5.133007,5.133007 0 0 1 0.171566,0.16381 5.133007,5.133007 0 0 1 0.163814,0.17157 5.133007,5.133007 0 0 1 0.155546,0.1788 5.133007,5.133007 0 0 1 0.147278,0.18603 5.133007,5.133007 0 0 1 0.138493,0.19224 5.133007,5.133007 0 0 1 0.129191,0.19895 5.133007,5.133007 0 0 1 0.120406,0.20464 5.133007,5.133007 0 0 1 0.110588,0.20929 5.133007,5.133007 0 0 1 0.100769,0.21497 5.133007,5.133007 0 0 1 0.09043,0.21911 5.133007,5.133007 0 0 1 0.08062,0.22273 5.133007,5.133007 0 0 1 0.07028,0.22686 5.133007,5.133007 0 0 1 0.05943,0.22944 5.133007,5.133007 0 0 1 0.04909,0.23203 5.133007,5.133007 0 0 1 0.03824,0.23409 5.133007,5.133007 0 0 1 0.02739,0.23513 5.133007,5.133007 0 0 1 0.01602,0.23668 5.133007,5.133007 0 0 1 0.0057,0.23719 5.133007,5.133007 0 0 1 -0.04393,0.66973 5.133007,5.133007 0 0 1 -0.131258,0.65887 5.133007,5.133007 0 0 1 -0.215491,0.63562 5.133007,5.133007 0 0 1 -0.297139,0.60203 5.133007,5.133007 0 0 1 -0.373104,0.55863 5.133007,5.133007 0 0 1 -0.44235,0.50488 5.133007,5.133007 0 0 1 -0.504879,0.44235 5.133007,5.133007 0 0 1 -0.558622,0.3731 5.133007,5.133007 0 0 1 -0.602031,0.29714 5.133007,5.133007 0 0 1 -0.63562,0.21549 5.133007,5.133007 0 0 1 -0.658874,0.13126 5.133007,5.133007 0 0 1 -0.09612,0.006 z" /><path
           id="path2894"
           style="vector-effect:non-scaling-stroke;fill:url(#linearGradient11945);fill-opacity:1;stroke:none;stroke-width:0.000169032;-inkscape-stroke:hairline"
           d="m -38.63962,94.084207 -4.813143,4.76612 a 19.824362,19.824362 0 0 1 0.806153,1.00045 19.824362,19.824362 0 0 1 0.807185,1.162723 19.824362,19.824362 0 0 1 0.72192,1.21698 19.824362,19.824362 0 0 1 0.633553,1.26556 19.824362,19.824362 0 0 1 0.541569,1.30741 19.824362,19.824362 0 0 1 0.447001,1.34255 19.824362,19.824362 0 0 1 0.270268,1.03405 5.133007,5.133007 0 0 1 0.212907,0.0346 5.133007,5.133007 0 0 1 0.232027,0.0491 5.133007,5.133007 0 0 1 0.229444,0.0594 5.133007,5.133007 0 0 1 0.226342,0.0703 5.133007,5.133007 0 0 1 0.223243,0.0806 5.133007,5.133007 0 0 1 0.219108,0.0904 5.133007,5.133007 0 0 1 0.214457,0.10077 5.133007,5.133007 0 0 1 0.209806,0.11059 5.133007,5.133007 0 0 1 0.204639,0.1204 5.133007,5.133007 0 0 1 0.198437,0.1292 5.133007,5.133007 0 0 1 0.192753,0.13849 5.133007,5.133007 0 0 1 0.186036,0.14728 5.133007,5.133007 0 0 1 0.1788,0.15554 5.133007,5.133007 0 0 1 0.171566,0.16382 5.133007,5.133007 0 0 1 0.163297,0.17156 5.133007,5.133007 0 0 1 0.156063,0.1788 5.133007,5.133007 0 0 1 0.147278,0.18604 5.133007,5.133007 0 0 1 0.138493,0.19223 5.133007,5.133007 0 0 1 0.129191,0.19896 5.133007,5.133007 0 0 1 0.120406,0.20464 5.133007,5.133007 0 0 1 0.110071,0.20929 5.133007,5.133007 0 0 1 0.100769,0.21497 5.133007,5.133007 0 0 1 0.09095,0.21911 5.133007,5.133007 0 0 1 0.08062,0.22272 5.133007,5.133007 0 0 1 0.07028,0.22686 5.133007,5.133007 0 0 1 0.05943,0.22945 5.133007,5.133007 0 0 1 0.04909,0.23202 5.133007,5.133007 0 0 1 0.03824,0.2341 5.133007,5.133007 0 0 1 0.02687,0.23513 5.133007,5.133007 0 0 1 0.01654,0.23667 5.133007,5.133007 0 0 1 0.0057,0.2372 5.133007,5.133007 0 0 1 -0.04392,0.66973 5.133007,5.133007 0 0 1 -0.131258,0.65887 5.133007,5.133007 0 0 1 -0.215491,0.63562 5.133007,5.133007 0 0 1 -0.297139,0.60203 5.133007,5.133007 0 0 1 -0.373104,0.55862 5.133007,5.133007 0 0 1 -0.44235,0.50488 5.133007,5.133007 0 0 1 -0.504879,0.44235 5.133007,5.133007 0 0 1 -0.558622,0.37311 5.133007,5.133007 0 0 1 -0.602031,0.29714 5.133007,5.133007 0 0 1 -0.63562,0.21549 5.133007,5.133007 0 0 1 -0.658874,0.13125 5.133007,5.133007 0 0 1 -0.224276,0.0145 19.824362,19.824362 0 0 1 -0.123507,0.40308 19.824362,19.824362 0 0 1 -0.149345,0.44803 19.824362,19.824362 0 0 1 -0.15968,0.44391 19.824362,19.824362 0 0 1 -0.170015,0.44028 19.824362,19.824362 0 0 1 -0.180351,0.43563 19.824362,19.824362 0 0 1 -0.191203,0.4315 19.824362,19.824362 0 0 1 -0.201021,0.42685 19.824362,19.824362 0 0 1 -0.21084,0.42168 19.824362,19.824362 0 0 1 -0.221175,0.41702 19.824362,19.824362 0 0 1 -0.230994,0.41135 19.824362,19.824362 0 0 1 -0.240812,0.40566 19.824362,19.824362 0 0 1 -0.250631,0.39997 19.824362,19.824362 0 0 1 -0.259415,0.39378 19.824362,19.824362 0 0 1 -0.269235,0.38757 19.824362,19.824362 0 0 1 -0.278019,0.38086 19.824362,19.824362 0 0 1 -0.287321,0.37465 19.824362,19.824362 0 0 1 -0.296106,0.36742 19.824362,19.824362 0 0 1 -0.304891,0.36019 19.824362,19.824362 0 0 1 -0.222725,0.25114 l 5.241024,5.24103 8.320422,-8.32042 c 4.185407,-4.24663 8.033567,-11.08402 0,-19.35696 z m -1.745113,13.071033 a 18.695728,18.695728 0 0 0 -0.07441,-0.29197 18.695728,18.695728 0 0 0 -0.132809,-0.47129 18.695728,18.695728 0 0 0 -0.14521,-0.46715 18.695728,18.695728 0 0 0 -0.157097,-0.46354 18.695728,18.695728 0 0 0 -0.169498,-0.4594 18.695728,18.695728 0 0 0 -0.181385,-0.45475 18.695728,18.695728 0 0 0 -0.193269,-0.44959 18.695728,18.695728 0 0 0 -0.204639,-0.44442 18.695728,18.695728 0 0 0 -0.216524,-0.43873 18.695728,18.695728 0 0 0 -0.227893,-0.43357 18.695728,18.695728 0 0 0 -0.239262,-0.42684 18.695728,18.695728 0 0 0 -0.250114,-0.42065 18.695728,18.695728 0 0 0 -0.261483,-0.41393 18.695728,18.695728 0 0 0 -0.271818,-0.40669 18.695728,18.695728 0 0 0 -0.282153,-0.39998 18.695728,18.695728 0 0 0 -0.293006,-0.39222 18.695728,18.695728 0 0 0 -0.302824,-0.384473 18.695728,18.695728 0 0 0 -0.267167,-0.32143 l -2.214335,2.192633 c -7.00852,7.75373 -5.655993,14.37665 0,20.41736 l 1.910995,1.9389 a 18.695728,18.695728 0 0 0 0.258382,-0.29094 18.695728,18.695728 0 0 0 0.465604,-0.56741 18.695728,18.695728 0 0 0 0.443384,-0.58549 18.695728,18.695728 0 0 0 0.419613,-0.60203 18.695728,18.695728 0 0 0 0.395841,-0.61857 18.695728,18.695728 0 0 0 0.371037,-0.63303 18.695728,18.695728 0 0 0 0.346232,-0.64751 18.695728,18.695728 0 0 0 0.320394,-0.66042 18.695728,18.695728 0 0 0 0.294039,-0.67283 18.695728,18.695728 0 0 0 0.267684,-0.68368 18.695728,18.695728 0 0 0 0.240295,-0.6935 18.695728,18.695728 0 0 0 0.05168,-0.17053 5.133007,5.133007 0 0 1 -0.599447,-0.11937 5.133007,5.133007 0 0 1 -0.63562,-0.21549 5.133007,5.133007 0 0 1 -0.602547,-0.29714 5.133007,5.133007 0 0 1 -0.558106,-0.37311 5.133007,5.133007 0 0 1 -0.504878,-0.44235 5.133007,5.133007 0 0 1 -0.442868,-0.50488 5.133007,5.133007 0 0 1 -0.372587,-0.55862 5.133007,5.133007 0 0 1 -0.297139,-0.60203 5.133007,5.133007 0 0 1 -0.216008,-0.63562 5.133007,5.133007 0 0 1 -0.130741,-0.65887 5.133007,5.133007 0 0 1 -0.04393,-0.66973 5.133007,5.133007 0 0 1 0.04393,-0.67024 5.133007,5.133007 0 0 1 0.130741,-0.65836 5.133007,5.133007 0 0 1 0.216008,-0.63562 5.133007,5.133007 0 0 1 0.297139,-0.60255 5.133007,5.133007 0 0 1 0.372587,-0.5581 5.133007,5.133007 0 0 1 0.442868,-0.50488 5.133007,5.133007 0 0 1 0.504878,-0.44235 5.133007,5.133007 0 0 1 0.558106,-0.37311 5.133007,5.133007 0 0 1 0.602547,-0.29714 5.133007,5.133007 0 0 1 0.63562,-0.216 5.133007,5.133007 0 0 1 0.658358,-0.13075 5.133007,5.133007 0 0 1 0.240812,-0.016 z" /></g><g
         id="g1126"
         style="stroke-width:1.81093"><g
           aria-label="NK Gráfica"
           id="text209"
           style="font-weight:600;font-size:27.0981px;font-family:'Fira Sans';-inkscape-font-specification:'Fira Sans Semi-Bold';text-align:center;text-anchor:middle;vector-effect:non-scaling-stroke;fill:#0e69be;stroke-width:0.479142;-inkscape-stroke:hairline"><path
             d="m 90.267856,122.2981 h -3.522753 v -20.05259 z m 19.239654,0 h -3.52276 z m -3.52276,-4.85056 v -15.20203 h 3.52276 v 20.05259 h -3.52276 L 90.267856,107.06897 v 15.22913 h -3.522753 v -20.05259 h 3.522753 z"
             style="font-weight:bold;font-family:Benzin-Regular;-inkscape-font-specification:'Benzin-Regular Bold';stroke-width:0.479142"
             id="path1077" /><path
             d="m 119.34409,111.43176 13.38647,10.86634 h -5.39253 l -11.05602,-9.29465 v 9.29465 h -3.52275 v -20.05259 h 3.52275 v 7.75006 l 10.54116,-7.75006 h 5.47382 z"
             style="font-weight:bold;font-family:Benzin-Regular;-inkscape-font-specification:'Benzin-Regular Bold';stroke-width:0.479142"
             id="path1079" /><path
             d="m 167.33476,122.2981 h -2.22204 l -0.54197,-2.92659 q -1.65298,1.65298 -4.03761,2.57432 -2.38464,0.89424 -5.09445,0.89424 -3.44146,0 -6.20546,-1.38201 -2.76401,-1.382 -4.3628,-3.76663 -1.57169,-2.41173 -1.57169,-5.39253 0,-3.00788 1.62589,-5.39252 1.62589,-2.41173 4.38989,-3.76663 2.79111,-1.35491 6.12417,-1.35491 2.38464,0 4.74217,0.81294 2.35754,0.81295 4.20021,2.49303 1.84267,1.68008 2.60141,4.17311 l -3.73953,0.0271 q -0.65036,-1.4904 -1.95107,-2.46593 -1.30071,-1.00263 -2.8724,-1.4633 -1.54459,-0.48777 -2.95369,-0.48777 -2.46593,0 -4.44409,0.92134 -1.95106,0.89424 -3.08918,2.60142 -1.11102,1.68008 -1.11102,3.90212 0,2.35754 1.16522,4.06472 1.19231,1.68008 3.17047,2.54722 1.97817,0.86714 4.3086,0.86714 2.43883,0 4.60668,-1.11102 2.16785,-1.11102 3.27887,-3.38726 h -7.58747 v -2.76401 h 11.4625 v 1.95106 z"
             style="font-weight:bold;font-family:Benzin-Regular;-inkscape-font-specification:'Benzin-Regular Bold';stroke-width:0.479142"
             id="path1081" /><path
             d="m 172.97114,109.80588 q 1.02973,-1.08393 2.57432,-1.65299 1.54459,-0.59615 3.65825,-0.81294 v 3.27887 h -2.98079 q -1.89687,0 -2.54723,1.05683 -0.62325,1.05682 -0.65035,2.92659 v 7.69586 h -3.38726 v -14.76846 h 2.8182 z"
             style="font-weight:bold;font-family:Benzin-Regular;-inkscape-font-specification:'Benzin-Regular Bold';stroke-width:0.479142"
             id="path1083" /><path
             d="m 190.72039,106.87928 q 3.41436,0 6.12417,1.30071 2.70981,1.30071 2.70981,4.57958 v 9.53853 h -3.00789 l -0.37937,-2.8453 q -0.37938,0.78585 -1.59879,1.5175 -1.19232,0.70455 -2.8995,1.13812 -1.68008,0.43357 -3.46855,0.43357 -2.08656,0 -4.52539,-0.86714 -2.43883,-0.86714 -2.43883,-3.79374 0,-1.92396 1.05683,-2.92659 1.05683,-1.02973 2.30334,-1.32781 1.24651,-0.32518 2.22204,-0.32518 4.68797,0 6.47645,-0.0542 1.81557,-0.0813 2.35753,-0.29808 0.54197,-0.24388 0.56906,-0.84004 v -0.24389 q -0.0271,-0.67745 -0.81294,-1.24651 -0.75875,-0.59616 -2.03236,-0.94843 -1.27361,-0.35228 -2.70981,-0.35228 -2.43883,-0.0542 -4.14601,0.67746 -1.70718,0.73164 -1.70718,2.35753 h -3.41436 q 0,-2.08655 1.4904,-3.30597 1.49039,-1.21941 3.60405,-1.68008 2.11365,-0.48777 4.2273,-0.48777 z m -1.21942,12.68192 q 3.79374,0 5.22994,-1.5446 1.4633,-1.54459 1.4633,-3.49565 -1.32781,1.00263 -5.41962,1.00263 -2.24915,0 -3.49566,0.13549 -1.21941,0.13549 -1.81557,0.54196 -0.59616,0.37937 -0.65036,1.13812 0.0813,1.02973 1.11103,1.62589 1.05682,0.59616 3.57694,0.59616 z m -1.46329,-13.44066 1.89686,-3.60405 h 4.44409 l -3.25177,3.60405 z"
             style="font-weight:bold;font-family:Benzin-Regular;-inkscape-font-specification:'Benzin-Regular Bold';stroke-width:0.479142"
             id="path1085" /><path
             d="m 211.82977,108.77615 v 2.8453 h -3.36017 v 10.67665 h -3.38726 v -10.67665 h -3.22467 v -2.8453 h 3.22467 v -1.4633 q 0,-3.22467 1.57169,-4.38989 1.57169,-1.16522 3.54985,-1.16522 0.67745,0 1.21942,0.1084 v 3.33306 q -1.35491,0 -1.95107,0.21679 -0.56906,0.21678 -0.78584,0.94843 -0.18969,0.70455 -0.21679,2.41173 z"
             style="font-weight:bold;font-family:Benzin-Regular;-inkscape-font-specification:'Benzin-Regular Bold';stroke-width:0.479142"
             id="path1087" /><path
             d="m 217.52037,102.24551 h -3.38726 v 2.8724 h 3.38726 z m 0,20.05259 h -3.38726 v -16.39435 h 3.38726 z"
             style="font-weight:bold;font-family:Benzin-Regular;-inkscape-font-specification:'Benzin-Regular Bold';stroke-width:0.479142"
             id="path1089" /><path
             d="m 219.55267,114.92742 q 0,-2.27624 1.24652,-4.09181 1.27361,-1.84267 3.46855,-2.8724 2.22205,-1.02973 4.93186,-1.02973 3.90212,0 6.04287,1.62589 2.14075,1.62588 3.17048,4.55248 h -3.41436 q -0.24388,-0.97553 -1.02973,-1.84267 -0.78584,-0.86714 -2.00526,-1.38201 -1.21941,-0.51486 -2.68271,-0.51486 -2.00526,0 -3.41436,0.73165 -1.4091,0.73165 -2.14075,2.00526 -0.70455,1.24651 -0.70455,2.8182 0,1.3549 0.67745,2.65561 0.67746,1.30071 2.08656,2.14075 1.4091,0.81295 3.49565,0.75875 1.4904,0 2.70981,-0.51486 1.21942,-0.54197 1.97816,-1.38201 0.78585,-0.86714 1.00263,-1.81557 h 3.41436 q -0.18968,1.51749 -1.54459,2.95369 -1.32781,1.40911 -3.38726,2.30334 -2.03236,0.89424 -4.2544,0.89424 -2.57432,0 -4.79637,-1.02973 -2.22204,-1.05682 -3.54985,-2.89949 -1.30071,-1.84268 -1.30071,-4.06472 z"
             style="font-weight:bold;font-family:Benzin-Regular;-inkscape-font-specification:'Benzin-Regular Bold';stroke-width:0.479142"
             id="path1091" /><path
             d="m 249.65863,106.87928 q 3.41436,0 6.12417,1.30071 2.70981,1.30071 2.70981,4.57958 v 9.53853 h -3.00789 l -0.37937,-2.8453 q -0.37938,0.78585 -1.59879,1.5175 -1.19232,0.70455 -2.8995,1.13812 -1.68008,0.43357 -3.46855,0.43357 -2.08656,0 -4.52539,-0.86714 -2.43883,-0.86714 -2.43883,-3.79374 0,-1.92396 1.05683,-2.92659 1.05683,-1.02973 2.30334,-1.32781 1.24651,-0.32518 2.22204,-0.32518 4.68797,0 6.47645,-0.0542 1.81557,-0.0813 2.35753,-0.29808 0.54197,-0.24388 0.56906,-0.84004 v -0.24389 q -0.0271,-0.67745 -0.81294,-1.24651 -0.75875,-0.59616 -2.03236,-0.94843 -1.27361,-0.35228 -2.70981,-0.35228 -2.43883,-0.0542 -4.14601,0.67746 -1.70718,0.73164 -1.70718,2.35753 h -3.41436 q 0,-2.08655 1.4904,-3.30597 1.49039,-1.21941 3.60405,-1.68008 2.11365,-0.48777 4.2273,-0.48777 z m -1.21942,12.68192 q 3.79374,0 5.22994,-1.5446 1.4633,-1.54459 1.4633,-3.49565 -1.32781,1.00263 -5.41962,1.00263 -2.24915,0 -3.49566,0.13549 -1.21941,0.13549 -1.81557,0.54196 -0.59616,0.37937 -0.65036,1.13812 0.0813,1.02973 1.11103,1.62589 1.05682,0.59616 3.57694,0.59616 z"
             style="font-weight:bold;font-family:Benzin-Regular;-inkscape-font-specification:'Benzin-Regular Bold';stroke-width:0.479142"
             id="path1093" /></g><g
           aria-label="Online"
           id="text209-3"
           style="font-weight:600;font-size:14.27px;font-family:'Fira Sans';-inkscape-font-specification:'Fira Sans Semi-Bold';text-align:center;text-anchor:middle;vector-effect:non-scaling-stroke;fill:#0e69be;stroke-width:0.479142;-inkscape-stroke:hairline"><path
             d="m 93.138054,130.41475 q 1.812291,0 3.253561,0.72777 1.45554,0.7135 2.26893,1.98353 0.82766,1.25576 0.82766,2.83973 0,1.5697 -0.82766,2.82546 -0.81339,1.25576 -2.25466,1.98353 -1.44127,0.7135 -3.253561,0.7135 -1.75521,0 -3.22502,-0.7135 -1.46981,-0.72777 -2.32601,-1.98353 -0.8562,-1.27003 -0.8562,-2.82546 0,-1.5697 0.8562,-2.83973 0.8562,-1.27003 2.31174,-1.98353 1.46981,-0.72777 3.22502,-0.72777 z m 0,9.46101 q 1.15587,0 2.183311,-0.45664 1.02744,-0.45664 1.65532,-1.34138 0.62788,-0.88474 0.62788,-2.11196 0,-1.19868 -0.64215,-2.09769 -0.62788,-0.89901 -1.66959,-1.36992 -1.041711,-0.47091 -2.197581,-0.47091 -1.25576,0 -2.2832,0.47091 -1.01317,0.47091 -1.59824,1.36992 -0.58507,0.88474 -0.58507,2.09769 0,1.24149 0.61361,2.12623 0.62788,0.88474 1.65532,1.34138 1.02744,0.44237 2.24039,0.44237 z"
             style="font-weight:bold;font-family:Benzin-Regular;-inkscape-font-specification:'Benzin-Regular Bold';stroke-width:0.479142"
             id="path1096" /><path
             d="m 105.92397,133.16886 q 1.5697,0 2.45444,1.09879 0.89901,1.09879 0.89901,3.72447 v 3.21075 h -1.78375 v -3.16794 q 0,-1.46981 -0.48518,-2.45444 -0.48518,-0.9989 -2.01207,-0.9989 -1.5697,0 -2.08342,1.01317 -0.49945,0.9989 -0.49945,2.54006 v 3.06805 h -1.78375 v -7.77715 h 1.78375 v 1.07025 q 1.17014,-1.32711 3.51042,-1.32711 z"
             style="font-weight:bold;font-family:Benzin-Regular;-inkscape-font-specification:'Benzin-Regular Bold';stroke-width:0.479142"
             id="path1098" /><path
             d="m 112.27412,141.20287 h -1.78375 v -10.5598 h 1.78375 z"
             style="font-weight:bold;font-family:Benzin-Regular;-inkscape-font-specification:'Benzin-Regular Bold';stroke-width:0.479142"
             id="path1100" /><path
             d="m 115.55621,130.64307 h -1.78375 v 1.51262 h 1.78375 z m 0,10.5598 h -1.78375 v -8.63335 h 1.78375 z"
             style="font-weight:bold;font-family:Benzin-Regular;-inkscape-font-specification:'Benzin-Regular Bold';stroke-width:0.479142"
             id="path1102" /><path
             d="m 122.13465,133.16886 q 1.5697,0 2.45444,1.09879 0.89901,1.09879 0.89901,3.72447 v 3.21075 h -1.78375 v -3.16794 q 0,-1.46981 -0.48518,-2.45444 -0.48518,-0.9989 -2.01207,-0.9989 -1.5697,0 -2.08342,1.01317 -0.49945,0.9989 -0.49945,2.54006 v 3.06805 h -1.78375 v -7.77715 h 1.78375 v 1.07025 q 1.17014,-1.32711 3.51042,-1.32711 z"
             style="font-weight:bold;font-family:Benzin-Regular;-inkscape-font-specification:'Benzin-Regular Bold';stroke-width:0.479142"
             id="path1104" /><path
             d="m 136.37611,137.42132 h -8.10536 q 0.0428,0.72777 0.41383,1.36992 0.37102,0.62788 1.09879,1.02744 0.72777,0.39956 1.76948,0.39956 0.89901,0 1.58397,-0.31394 0.69923,-0.32821 1.07025,-0.79912 0.38529,-0.48518 0.38529,-0.92755 h 1.78375 q 0,0.74204 -0.5708,1.51262 -0.5708,0.77058 -1.66959,1.2843 -1.09879,0.51372 -2.61141,0.51372 -1.35565,0 -2.51152,-0.52799 -1.15587,-0.54226 -1.84083,-1.49835 -0.68496,-0.97036 -0.68496,-2.19758 0,-1.25576 0.65642,-2.21185 0.67069,-0.97036 1.81229,-1.48408 1.15587,-0.52799 2.5686,-0.52799 1.44127,0 2.52579,0.51372 1.09879,0.51372 1.69813,1.45554 0.61361,0.92755 0.62788,2.18331 z m -4.82326,-3.09659 q -1.22722,0 -1.98353,0.54226 -0.75631,0.54226 -1.08452,1.427 h 5.9934 q -0.24259,-0.88474 -0.95609,-1.427 -0.69923,-0.54226 -1.96926,-0.54226 z"
             style="font-weight:bold;font-family:Benzin-Regular;-inkscape-font-specification:'Benzin-Regular Bold';stroke-width:0.479142"
             id="path1106" /></g></g></g></g></svg>
